<svg width="21" height="19" viewBox="0 0 21 19" fill="none" xmlns="http://www.w3.org/2000/svg">
<path d="M2 8V14V2V8ZM12 17C12.2833 17 12.5208 16.9042 12.7125 16.7125C12.9042 16.5208 13 16.2833 13 16C13 15.7167 12.9042 15.4792 12.7125 15.2875C12.5208 15.0958 12.2833 15 12 15C11.7167 15 11.4792 15.0958 11.2875 15.2875C11.0958 15.4792 11 15.7167 11 16C11 16.2833 11.0958 16.5208 11.2875 16.7125C11.4792 16.9042 11.7167 17 12 17ZM18 7C18.2833 7 18.5208 6.90417 18.7125 6.7125C18.9042 6.52083 19 6.28333 19 6C19 5.71667 18.9042 5.47917 18.7125 5.2875C18.5208 5.09583 18.2833 5 18 5C17.7167 5 17.4792 5.09583 17.2875 5.2875C17.0958 5.47917 17 5.71667 17 6C17 6.28333 17.0958 6.52083 17.2875 6.7125C17.4792 6.90417 17.7167 7 18 7ZM8 7C8.28333 7 8.52083 6.90417 8.7125 6.7125C8.90417 6.52083 9 6.28333 9 6C9 5.71667 8.90417 5.47917 8.7125 5.2875C8.52083 5.09583 8.28333 5 8 5H5C4.71667 5 4.47917 5.09583 4.2875 5.2875C4.09583 5.47917 4 5.71667 4 6C4 6.28333 4.09583 6.52083 4.2875 6.7125C4.47917 6.90417 4.71667 7 5 7H8ZM8 11C8.28333 11 8.52083 10.9042 8.7125 10.7125C8.90417 10.5208 9 10.2833 9 10C9 9.71667 8.90417 9.47917 8.7125 9.2875C8.52083 9.09583 8.28333 9 8 9H5C4.71667 9 4.47917 9.09583 4.2875 9.2875C4.09583 9.47917 4 9.71667 4 10C4 10.2833 4.09583 10.5208 4.2875 10.7125C4.47917 10.9042 4.71667 11 5 11H8ZM2 16C1.45 16 0.979167 15.8042 0.5875 15.4125C0.195833 15.0208 0 14.55 0 14V2C0 1.45 0.195833 0.979167 0.5875 0.5875C0.979167 0.195833 1.45 0 2 0H18C18.55 0 19.0208 0.195833 19.4125 0.5875C19.8042 0.979167 20 1.45 20 2H2V14H7V16H2ZM12 19C11.1667 19 10.4583 18.7083 9.875 18.125C9.29167 17.5417 9 16.8333 9 16C9 15.35 9.1875 14.7667 9.5625 14.25C9.9375 13.7333 10.4167 13.375 11 13.175V11C11 10.7167 11.0958 10.4792 11.2875 10.2875C11.4792 10.0958 11.7167 10 12 10H17V8.825C16.4167 8.625 15.9375 8.26667 15.5625 7.75C15.1875 7.23333 15 6.65 15 6C15 5.16667 15.2917 4.45833 15.875 3.875C16.4583 3.29167 17.1667 3 18 3C18.8333 3 19.5417 3.29167 20.125 3.875C20.7083 4.45833 21 5.16667 21 6C21 6.65 20.8125 7.23333 20.4375 7.75C20.0625 8.26667 19.5833 8.625 19 8.825V11C19 11.2833 18.9042 11.5208 18.7125 11.7125C18.5208 11.9042 18.2833 12 18 12H13V13.175C13.5833 13.375 14.0625 13.7333 14.4375 14.25C14.8125 14.7667 15 15.35 15 16C15 16.8333 14.7083 17.5417 14.125 18.125C13.5417 18.7083 12.8333 19 12 19Z" fill="#1C1C1C"/>
</svg>
